Coordinates
version=1
nRows=10
nColumns=46
inDegrees=yes

Units are S.I. units (second, meters, Newtons, ...)
Angles are in degrees.

endheader
time	pelvis_tilt	pelvis_list	pelvis_rotation	pelvis_tx	pelvis_ty	pelvis_tz	bb_angle	bb_tx	bb_ty	bb_tz	hip_flexion_r	hip_adduction_r	hip_rotation_r	knee_angle_r	knee_angle_r_beta	ankle_angle_r	subtalar_angle_r	mtp_angle_r	crank_angle_r	hip_flexion_l	hip_adduction_l	hip_rotation_l	knee_angle_l	knee_angle_l_beta	ankle_angle_l	subtalar_angle_l	mtp_angle_l	crank_angle_l	lumbar_extension	lumbar_bending	lumbar_rotation	arm_flex_r	arm_add_r	arm_rot_r	elbow_flex_r	pro_sup_r	wrist_flex_r	wrist_dev_r	arm_flex_l	arm_add_l	arm_rot_l	elbow_flex_l	pro_sup_l	wrist_flex_l	wrist_dev_l
      2.50500000	    -20.49313279	      0.38980574	      5.83272801	      0.28186048	      1.12272908	     -0.26061347	      0.00000000	      0.50000000	      0.00000000	      0.25000000	     58.27119142	    -10.50849795	     -0.03549325	    101.37664921	      1.76935631	     -8.70051674	     -6.41044140	      0.00000000	      0.00000000	     48.81407327	     -2.13304744	     -0.60962265	     49.12271487	      0.85735311	      7.71292699	     -4.24699391	      0.00000000	      0.00000000	    -54.28654475	     -5.67980884	      0.63781107	     46.09855104	    -24.66645603	      9.44256553	     67.40032014	     48.23987230	      0.00000000	      0.00000000	     53.10928201	     -9.29683189	     23.54635097	     77.70208744	     49.78624008	      0.00000000	      0.00000000
      2.51000000	    -20.42080333	     -0.18236181	      4.90110825	      0.28338699	      1.12276189	     -0.26060118	      0.00000000	      0.50000000	      0.00000000	      0.25000000	     58.98055738	     -9.55129278	      0.03562487	    102.37445391	      1.78677129	     -8.39221524	     -6.20178716	      0.00000000	      0.00000000	     47.80989895	     -3.36770966	     -1.16698920	     47.97262680	      0.83728029	      7.10103560	     -3.63831542	      0.00000000	      0.00000000	    -54.06794382	     -5.69548663	      1.42193480	     46.33584703	    -24.56095145	     10.01403294	     67.09603790	     48.25465516	      0.00000000	      0.00000000	     52.92579733	     -9.96266763	     23.99729130	     77.44961555	     49.80051457	      0.00000000	      0.00000000
      2.51500000	    -20.45605075	     -0.72430023	      4.32291439	      0.28455463	      1.12310583	     -0.26146248	      0.00000000	      0.50000000	      0.00000000	      0.25000000	     59.74787804	     -9.02777779	     -0.11442937	    103.29851630	      1.80289922	     -8.11236051	     -6.19021676	      0.00000000	      0.00000000	     46.83909537	     -4.13259317	     -1.22131045	     46.57707288	      0.81292328	      6.26816651	     -3.23091575	      0.00000000	      0.00000000	    -53.83573067	     -5.39508342	      2.02470041	     46.55108925	    -24.54302830	     10.34470102	     66.94026655	     48.26155025	      0.00000000	      0.00000000	     52.72733698	    -10.41272411	     24.26215484	     77.22586289	     49.79393936	      0.00000000	      0.00000000
      2.52000000	    -20.55218745	     -1.21807825	      3.75587659	      0.28559666	      1.12351279	     -0.26261090	      0.00000000	      0.50000000	      0.00000000	      0.25000000	     60.58151581	     -8.57400389	     -0.24205989	    104.18860934	      1.81843428	     -7.83113408	     -6.17441937	      0.00000000	      0.00000000	     45.88719149	     -4.77823614	     -1.21931450	     45.16679645	      0.78830931	      5.63929182	     -2.94845795	      0.00000000	      0.00000000	    -53.57672809	     -5.03685825	      2.68467847	     46.76065118	    -24.49973235	     10.58771009	     66.85642405	     48.26974421	      0.00000000	      0.00000000	     52.61117390	    -10.75218907	     24.40311198	     77.05639402	     49.78218369	      0.00000000	      0.00000000
      2.52500000	    -20.65357631	     -1.71671827	      3.06290879	      0.28661108	      1.12433415	     -0.26363486	      0.00000000	      0.50000000	      0.00000000	      0.25000000	     61.40533833	     -7.98392084	     -0.27799748	    104.95296771	      1.83177485	     -7.59501508	     -6.04884566	      0.00000000	      0.00000000	     44.86057920	     -5.51794505	     -1.31878550	     43.63991082	      0.76166013	      4.76576481	     -2.65584601	      0.00000000	      0.00000000	    -53.34727579	     -4.80198521	      3.36449484	     47.00831178	    -24.45496656	     10.90120957	     66.72047499	     48.28045970	      0.00000000	      0.00000000	     52.46483309	    -11.07055444	     24.61074428	     76.80011900	     49.76855003	      0.00000000	      0.00000000
      2.53000000	    -20.60875290	     -2.01521078	      2.17102120	      0.28765784	      1.12577569	     -0.26448772	      0.00000000	      0.50000000	      0.00000000	      0.25000000	     62.09615152	     -7.30563973	     -0.00632631	    105.66080546	      1.84412895	     -7.22220847	     -5.72191054	      0.00000000	      0.00000000	     43.52098428	     -6.21086148	     -1.74369035	     41.96649452	      0.73245350	      3.74975514	     -2.59785025	      0.00000000	      0.00000000	    -53.20785579	     -4.85892573	      4.06007612	     47.98001143	    -24.94170074	     12.98719041	     65.12456731	     48.27389974	      0.00000000	      0.00000000	     53.13237122	    -11.76826137	     26.27466722	     75.38973645	     49.75206072	      0.00000000	      0.00000000
      2.53500000	    -20.78379562	     -2.55713274	      1.42891243	      0.28853456	      1.12710368	     -0.26560484	      0.00000000	      0.50000000	      0.00000000	      0.25000000	     62.94374121	     -6.63667633	     -0.09160145	    106.25917060	      1.85457239	     -6.88223820	     -5.78892491	      0.00000000	      0.00000000	     42.48501178	     -6.95443631	     -1.78272872	     40.30235344	      0.70340876	      2.68788869	     -2.35379426	      0.00000000	      0.00000000	    -52.99013993	     -4.57103058	      4.83606329	     48.26439692	    -24.89549860	     13.22173843	     65.02305420	     48.28661308	      0.00000000	      0.00000000	     52.99277293	    -11.96961790	     26.32522500	     75.15437021	     49.73029668	      0.00000000	      0.00000000
      2.54000000	    -20.93690912	     -3.06255839	      0.61553316	      0.28936214	      1.12882333	     -0.26666342	      0.00000000	      0.50000000	      0.00000000	      0.25000000	     63.73763416	     -5.92078023	     -0.12138817	    106.75241479	      1.86318112	     -6.58303512	     -5.57249195	      0.00000000	      0.00000000	     41.33847347	     -7.69223118	     -1.87529166	     38.53307052	      0.67252895	      1.60688652	     -2.20661007	      0.00000000	      0.00000000	    -52.83311977	     -4.38052938	      5.67787878	     48.68178627	    -24.95306341	     13.61641126	     64.69701262	     48.28063696	      0.00000000	      0.00000000	     53.05153358	    -12.05732788	     26.52749757	     74.67757724	     49.68511518	      0.00000000	      0.00000000
      2.54500000	    -21.04517009	     -3.54801365	     -0.18074274	      0.29014395	      1.13092420	     -0.26783788	      0.00000000	      0.50000000	      0.00000000	      0.25000000	     64.44378949	     -5.26354448	     -0.18846994	    107.16413899	      1.87036707	     -6.22627690	     -5.27580865	      0.00000000	      0.00000000	     40.09775121	     -8.36013110	     -1.90093664	     36.69837227	      0.64050743	      0.43117190	     -2.08071980	      0.00000000	      0.00000000	    -52.65842602	     -4.20354419	      6.64710901	     49.41437883	    -25.35850976	     14.86672859	     63.59584171	     48.26907792	      0.00000000	      0.00000000	     53.61220590	    -11.83618683	     27.21081409	     73.08861491	     49.53869444	      0.00000000	      0.00000000
      2.55000000	    -21.24910394	     -4.07809833	     -1.08609844	      0.29082385	      1.13319970	     -0.26886312	      0.00000000	      0.50000000	      0.00000000	      0.25000000	     65.23459744	     -4.46505722	     -0.28274768	    107.45874000	      1.87550882	     -5.88533096	     -5.13364455	      0.00000000	      0.00000000	     38.98579954	     -9.18480820	     -2.20606158	     34.93032759	      0.60964923	     -1.01158392	     -2.01888682	      0.00000000	      0.00000000	    -52.57061347	     -4.02892267	      7.63908668	     49.83322402	    -25.36339626	     15.11740072	     63.40249707	     48.27163600	      0.00000000	      0.00000000	     53.64670615	    -11.85025761	     27.26574437	     72.77165856	     49.50767159	      0.00000000	      0.00000000
